<svg width="282" height="41" viewBox="0 0 282 41" fill="none" xmlns="http://www.w3.org/2000/svg">
<path d="M10.18 33.82C4.38 33.82 1.54 26.9 1.54 19.7C1.54 12.66 5.14 5.98 10.5 5.98C13.5 5.98 14.14 7.42 15.06 7.42C15.46 7.42 15.62 7.3 15.74 7.18H16.02V12.18H15.42C15.22 8.86 13.54 6.9 10.54 6.9C6.1 6.9 4.22 13.26 4.22 19.7C4.22 26.26 5.54 32.86 10.18 32.86C13.06 32.86 14.94 30.18 15.54 25.98H16.5C15.94 30.46 13.86 33.82 10.18 33.82ZM26.8216 33.82C20.9416 33.82 18.1416 26.14 18.1416 19.66C18.1416 12.26 21.5816 5.98 26.8216 5.98C32.0616 5.98 35.5016 12.26 35.5016 19.66C35.5016 26.14 32.7016 33.82 26.8216 33.82ZM26.8216 32.9C31.6216 32.9 32.8216 25.86 32.8216 19.66C32.8216 12.82 31.1416 6.9 26.8216 6.9C22.5016 6.9 20.8216 12.82 20.8216 19.66C20.8216 25.86 22.0216 32.9 26.8216 32.9ZM39.9547 33.5H37.5547V33.3C37.8347 32.78 38.1947 31.3 38.1947 30.34V9.46C38.1947 8.5 37.8347 7.02 37.5547 6.5V6.3H40.7147L47.3147 28.06L53.9147 6.3H57.0347V6.5C56.7547 7.02 56.3947 8.5 56.3947 9.46V30.34C56.3947 31.3 56.7547 32.78 57.0347 33.3V33.5H53.3547V33.3C53.6347 32.78 53.9947 31.3 53.9947 30.34V9.58L46.7147 33.5H46.4747L39.1947 9.34V30.34C39.1947 31.3 39.6747 32.78 39.9547 33.3V33.5ZM62.7191 33.5H59.0391V33.3C59.3191 32.78 59.6791 31.3 59.6791 30.34V9.46C59.6791 8.5 59.3191 7.02 59.0391 6.5V6.3C59.7191 6.34 61.0391 6.38 61.8791 6.38C62.7191 6.38 64.4391 6.3 66.2391 6.3C70.6391 6.3 73.7991 8.74 73.7991 12.66C73.7991 16.74 70.5991 19.58 64.5191 19.58H62.0791V30.38C62.0791 31.34 62.4391 32.78 62.7191 33.3V33.5ZM62.0791 7.18V18.74H64.5191C69.1991 18.74 71.1191 16.22 71.1191 12.66C71.1191 9.02 68.9591 7.18 64.9191 7.18H62.0791ZM80.5947 6.3H82.4747L91.9147 33.3V33.5H88.2747V33.3C88.4747 32.5 88.2747 30.5 87.7147 28.9L85.3547 22.1H76.5147L74.5947 28.06C73.7947 30.54 73.8747 32.18 74.2347 33.3V33.5H71.7947L71.7547 33.3L80.5947 6.3ZM80.7547 8.86L76.7547 21.26H85.0747L80.7547 8.86ZM95.3909 33.5H93.0709V33.3C93.2309 33.02 93.3909 31.3 93.5109 29.54C93.6309 27.82 93.7109 26.02 93.7109 25.54V9.46C93.6709 8.98 93.2709 8.26 92.2709 6.5V6.3H94.7909L107.311 28.7V14.26C107.311 13.78 107.231 11.98 107.111 10.26C106.991 8.5 106.831 6.78 106.671 6.5V6.3H108.991V6.5C108.831 6.78 108.671 8.5 108.551 10.26C108.431 11.98 108.351 13.78 108.351 14.26V33.5H107.271L94.7509 11.14V25.54C94.7509 26.02 94.8309 27.82 94.9509 29.54C95.0709 31.3 95.2309 33.02 95.3909 33.3V33.5ZM120.524 33.5H116.844V33.3C117.124 32.78 117.484 31.3 117.484 30.34V23.46L109.924 6.5V6.3H113.364V6.5C113.164 7.3 113.524 9.18 114.324 10.9L119.284 21.86L123.564 11.74C124.684 9.14 124.524 7.34 124.164 6.5V6.3H126.804L126.844 6.5L119.884 22.94V30.34C119.884 31.3 120.244 32.78 120.524 33.3V33.5ZM166.361 33.5H163.961V33.3C164.241 32.78 164.601 31.3 164.601 30.34V9.46C164.601 8.5 164.241 7.02 163.961 6.5V6.3H167.121L173.721 28.06L180.321 6.3H183.441V6.5C183.161 7.02 182.801 8.5 182.801 9.46V30.34C182.801 31.3 183.161 32.78 183.441 33.3V33.5H179.761V33.3C180.041 32.78 180.401 31.3 180.401 30.34V9.58L173.121 33.5H172.881L165.601 9.34V30.34C165.601 31.3 166.081 32.78 166.361 33.3V33.5ZM194.165 33.82C188.285 33.82 185.485 26.14 185.485 19.66C185.485 12.26 188.925 5.98 194.165 5.98C199.405 5.98 202.845 12.26 202.845 19.66C202.845 26.14 200.045 33.82 194.165 33.82ZM194.165 32.9C198.965 32.9 200.165 25.86 200.165 19.66C200.165 12.82 198.485 6.9 194.165 6.9C189.845 6.9 188.165 12.82 188.165 19.66C188.165 25.86 189.365 32.9 194.165 32.9ZM210.826 33.82C208.146 33.82 206.466 32.66 205.706 32.66C205.466 32.66 205.266 32.78 205.226 32.94H204.946V25.22H205.546C205.746 31.1 207.506 32.9 210.826 32.9C213.906 32.9 215.146 30.46 215.146 27.42C215.146 24.54 213.786 22.34 211.426 20.62L209.586 19.3C207.106 17.54 205.066 15.26 205.066 11.7C205.066 8.3 207.586 5.98 210.946 5.98C213.426 5.98 214.466 7.3 215.186 7.3C215.546 7.3 215.706 7.18 215.746 7.02H216.026V12.02H215.426C215.226 8.66 213.826 6.9 210.946 6.9C208.346 6.9 207.226 8.78 207.226 11.06C207.226 13.94 208.666 15.18 210.666 16.7L212.386 18.02C215.986 20.78 217.466 23.1 217.466 26.74C217.466 30.58 214.666 33.82 210.826 33.82ZM227.719 33.82C221.919 33.82 219.079 26.9 219.079 19.7C219.079 12.66 222.679 5.98 228.039 5.98C231.039 5.98 231.679 7.42 232.599 7.42C232.999 7.42 233.159 7.3 233.279 7.18H233.559V12.18H232.959C232.759 8.86 231.079 6.9 228.079 6.9C223.639 6.9 221.759 13.26 221.759 19.7C221.759 26.26 223.079 32.86 227.719 32.86C230.599 32.86 232.479 30.18 233.079 25.98H234.039C233.479 30.46 231.399 33.82 227.719 33.82ZM244.361 33.82C238.481 33.82 235.681 26.14 235.681 19.66C235.681 12.26 239.121 5.98 244.361 5.98C249.601 5.98 253.041 12.26 253.041 19.66C253.041 26.14 250.241 33.82 244.361 33.82ZM244.361 32.9C249.161 32.9 250.361 25.86 250.361 19.66C250.361 12.82 248.681 6.9 244.361 6.9C240.041 6.9 238.361 12.82 238.361 19.66C238.361 25.86 239.561 32.9 244.361 32.9ZM263.894 33.5H262.294L252.854 6.5V6.3H256.334V6.5C256.134 7.3 256.334 9.3 256.894 10.9L263.774 30.54L266.614 21.74L261.254 6.5V6.3H264.734V6.5C264.534 7.3 264.734 9.3 265.294 10.9L268.054 18.78L270.214 11.74C271.014 9.14 270.974 7.62 270.614 6.5V6.3H272.894L272.934 6.5L268.614 20.3L272.174 30.5L278.214 11.74C279.054 9.18 278.854 7.62 278.494 6.5V6.3H281.014L281.054 6.5L272.254 33.5H270.774L267.214 23.38L263.894 33.5Z" fill="white"/>
<path d="M150.22 37.16C149.66 37.16 149.047 37.1067 148.38 37C147.74 36.8933 147.18 36.76 146.7 36.6C146.247 36.44 146.033 36.28 146.06 36.12C146.06 36.0933 146.087 36.08 146.14 36.08C146.193 36.0533 146.313 36.0667 146.5 36.12C147.033 36.3333 147.567 36.4933 148.1 36.6C148.66 36.7333 149.26 36.8 149.9 36.8C150.033 36.8 150.18 36.8 150.34 36.8C150.5 36.8 150.66 36.7867 150.82 36.76C151.22 36.7067 151.74 36.6 152.38 36.44C153.047 36.28 153.7 36.0133 154.34 35.64C154.98 35.2667 155.513 34.76 155.94 34.12C156.393 33.5067 156.62 32.72 156.62 31.76C156.62 30.8 156.353 30.0267 155.82 29.44C155.287 28.8533 154.593 28.3867 153.74 28.04C153.26 28.2267 152.78 28.3867 152.3 28.52C151.82 28.6267 151.34 28.68 150.86 28.68C150.007 28.68 149.3 28.5467 148.74 28.28C148.18 28.0133 147.74 27.6667 147.42 27.24C147.207 27.24 146.993 27.2533 146.78 27.28C146.567 27.28 146.353 27.2933 146.14 27.32C144.673 27.48 143.34 27.72 142.14 28.04C140.94 28.36 139.78 28.7067 138.66 29.08C137.54 29.4533 136.353 29.8 135.1 30.12C133.847 30.44 132.42 30.68 130.82 30.84C130.687 30.8667 130.553 30.88 130.42 30.88C130.287 30.88 130.153 30.88 130.02 30.88C128.927 30.88 128.047 30.6533 127.38 30.2C126.74 29.7733 126.433 29.16 126.46 28.36C126.46 28.28 126.5 28.24 126.58 28.24C126.633 28.24 126.66 28.2667 126.66 28.32C126.767 29.0667 127.127 29.56 127.74 29.8C128.38 30.0133 129.073 30.12 129.82 30.12C130.113 30.12 130.393 30.1067 130.66 30.08C130.927 30.08 131.193 30.0667 131.46 30.04C133.327 29.7467 135.047 29.4 136.62 29C138.22 28.6 139.767 28.2267 141.26 27.88C142.753 27.5067 144.273 27.24 145.82 27.08L147.22 26.96C146.9 26.32 146.74 25.6133 146.74 24.84C146.74 24.4133 146.78 23.9867 146.86 23.56C146.913 23.2133 146.993 22.8667 147.1 22.52C146.727 22.9733 146.287 23.4533 145.78 23.96C145.273 24.4667 144.633 24.72 143.86 24.72C143.273 24.72 142.98 24.4533 142.98 23.92C142.98 23.7867 142.993 23.6667 143.02 23.56C143.073 23.4267 143.113 23.2933 143.14 23.16C143.407 22.3867 143.833 21.6 144.42 20.8C145.033 19.9733 145.66 19.2267 146.3 18.56C146.94 17.8667 147.447 17.3333 147.82 16.96C147.553 16.96 147.273 17.0267 146.98 17.16C146.713 17.2667 146.433 17.4267 146.14 17.64C145.447 18.12 144.74 18.6933 144.02 19.36C143.3 20.0267 142.633 20.7067 142.02 21.4C141.407 22.0933 140.887 22.7333 140.46 23.32C140.06 23.9067 139.807 24.36 139.7 24.68C139.433 24.68 139.3 24.5067 139.3 24.16C139.3 23.8933 139.38 23.56 139.54 23.16C139.7 22.76 139.9 22.3467 140.14 21.92C140.513 21.3067 140.953 20.6267 141.46 19.88C141.993 19.1333 142.553 18.4133 143.14 17.72C144.153 16.4933 145.313 15.28 146.62 14.08C147.953 12.8533 149.407 11.8 150.98 10.92C150.26 10.68 149.553 10.44 148.86 10.2C148.193 9.93333 147.593 9.69333 147.06 9.48C145.593 8.86667 143.993 8.37333 142.26 8C140.553 7.6 138.953 7.4 137.46 7.4C136.58 7.4 135.7 7.52 134.82 7.76C133.967 8 133.247 8.37333 132.66 8.88C132.073 9.38667 131.753 10.0533 131.7 10.88C132.073 10.8533 132.447 10.84 132.82 10.84C133.193 10.8133 133.553 10.8 133.9 10.8C134.593 10.8 135.367 10.84 136.22 10.92C137.1 11 138.033 11.1067 139.02 11.24C140.993 11.56 142.527 11.7867 143.62 11.92C144.74 12.0533 145.58 12.12 146.14 12.12C146.807 12.12 147.233 12.0533 147.42 11.92C147.633 11.7867 147.86 11.6133 148.1 11.4C148.153 11.6667 148.02 12 147.7 12.4C147.407 12.7733 146.94 12.9867 146.3 13.04C145.82 13.0667 145.393 13.0667 145.02 13.04C144.673 12.9867 144.207 12.9067 143.62 12.8C142.713 13.7333 141.82 14.88 140.94 16.24C140.087 17.5733 139.233 18.92 138.38 20.28C137.553 21.64 136.727 22.8133 135.9 23.8C134.993 24.92 133.873 25.8933 132.54 26.72C131.233 27.5467 129.887 27.96 128.5 27.96C127.78 27.96 127.167 27.8667 126.66 27.68C126.153 27.4667 125.727 27.2 125.38 26.88C125.033 26.5333 124.767 26.1467 124.58 25.72C124.42 25.2667 124.34 24.7867 124.34 24.28C124.34 23.5867 124.487 22.8933 124.78 22.2C125.073 21.48 125.5 20.8267 126.06 20.24C126.7 19.5467 127.5 18.8933 128.46 18.28C129.447 17.6667 130.54 17.1867 131.74 16.84C132.94 16.4933 134.18 16.3733 135.46 16.48C135.753 16.48 135.9 16.52 135.9 16.6C135.9 16.7067 135.753 16.7333 135.46 16.68C134.473 16.6 133.473 16.7467 132.46 17.12C131.447 17.4667 130.5 17.96 129.62 18.6C128.767 19.2133 128.047 19.88 127.46 20.6C127.007 21.1867 126.607 21.8667 126.26 22.64C125.94 23.3867 125.78 24.12 125.78 24.84C125.78 25.4533 125.94 25.9867 126.26 26.44C126.5 26.7867 126.793 27.04 127.14 27.2C127.487 27.36 127.86 27.44 128.26 27.44C128.847 27.44 129.447 27.32 130.06 27.08C130.673 26.8133 131.22 26.5067 131.7 26.16C132.233 25.7333 132.807 25.1867 133.42 24.52C134.033 23.8533 134.553 23.2533 134.98 22.72C135.54 22.0267 136.153 21.2267 136.82 20.32C137.487 19.4133 138.18 18.48 138.9 17.52C139.647 16.56 140.393 15.6667 141.14 14.84C141.887 13.9867 142.607 13.2933 143.3 12.76C142.473 12.6 141.633 12.4133 140.78 12.2C139.927 11.9867 139.06 11.8267 138.18 11.72C137.22 11.56 136.247 11.48 135.26 11.48C134.3 11.48 133.38 11.56 132.5 11.72C132.393 11.7467 132.273 11.7733 132.14 11.8C132.033 11.8 131.913 11.8267 131.78 11.88C132.047 12.92 132.727 13.76 133.82 14.4C134.94 15.0133 136.247 15.32 137.74 15.32C137.793 15.32 137.82 15.3333 137.82 15.36C137.82 15.44 137.713 15.48 137.5 15.48C136.54 15.48 135.58 15.3733 134.62 15.16C133.66 14.92 132.82 14.56 132.1 14.08C131.407 13.6 130.927 12.9867 130.66 12.24C129.887 12.5067 129.247 12.92 128.74 13.48C128.367 13.9333 128.18 14.3867 128.18 14.84C128.18 15.1067 128.247 15.3467 128.38 15.56C128.46 15.64 128.553 15.72 128.66 15.8C128.793 15.88 128.9 15.92 128.98 15.92C128.9 16 128.78 16.04 128.62 16.04C128.3 16.04 128.033 15.9333 127.82 15.72C127.58 15.5067 127.407 15.2667 127.3 15C127.193 14.7067 127.14 14.4267 127.14 14.16C127.14 13.2267 127.473 12.5333 128.14 12.08C128.807 11.6 129.593 11.2667 130.5 11.08C130.5 9.98667 130.86 9.12 131.58 8.48C132.327 7.84 133.233 7.37333 134.3 7.08C135.367 6.78667 136.393 6.64 137.38 6.64C138.953 6.64 140.607 6.92 142.34 7.48C144.1 8.04 145.7 8.61333 147.14 9.2C147.753 9.46666 148.42 9.73333 149.14 10C149.86 10.24 150.593 10.4933 151.34 10.76C152.433 10.1733 153.58 9.70667 154.78 9.36C155.98 9.01333 157.233 8.84 158.54 8.84C159.073 8.84 159.607 8.89333 160.14 9C160.7 9.08 161.153 9.22667 161.5 9.44C162.033 9.78667 162.3 10.2 162.3 10.68C162.3 11 162.18 11.3067 161.94 11.6C161.727 11.8933 161.433 12.12 161.06 12.28C160.5 12.52 159.793 12.64 158.94 12.64C157.9 12.64 156.727 12.4933 155.42 12.2C154.14 11.9067 152.873 11.56 151.62 11.16C149.833 12.2267 148.153 13.5867 146.58 15.24C145.007 16.8933 143.66 18.56 142.54 20.24L142.02 20.96C142.687 20.2133 143.407 19.4933 144.18 18.8C144.953 18.08 145.673 17.5067 146.34 17.08C146.553 16.9467 146.767 16.8267 146.98 16.72C147.193 16.6133 147.433 16.56 147.7 16.56C148.127 16.56 148.34 16.72 148.34 17.04C148.34 17.3067 148.18 17.6267 147.86 18C147.3 18.6667 146.727 19.3867 146.14 20.16C145.553 20.9333 145.06 21.7067 144.66 22.48C144.607 22.5867 144.5 22.8 144.34 23.12C144.18 23.44 144.1 23.7067 144.1 23.92C144.1 24.1333 144.207 24.24 144.42 24.24C144.74 24.24 145.1 24.0667 145.5 23.72C145.9 23.3733 146.273 23.0133 146.62 22.64C146.967 22.24 147.18 21.9867 147.26 21.88C147.287 21.88 147.3 21.8933 147.3 21.92C147.327 21.92 147.34 21.92 147.34 21.92C147.42 21.7067 147.513 21.4933 147.62 21.28C147.727 21.04 147.847 20.8133 147.98 20.6C148.433 19.8533 148.98 19.16 149.62 18.52C150.26 17.8533 150.953 17.32 151.7 16.92C152.447 16.4933 153.193 16.28 153.94 16.28C154.233 16.28 154.447 16.36 154.58 16.52C154.74 16.68 154.82 16.8533 154.82 17.04C154.82 17.2533 154.753 17.4667 154.62 17.68C154.487 17.8933 154.313 18.0933 154.1 18.28C153.54 18.8133 152.833 19.32 151.98 19.8C151.127 20.28 150.273 20.6267 149.42 20.84C148.993 21.56 148.66 22.32 148.42 23.12C148.18 23.92 148.06 24.7467 148.06 25.6C148.06 25.8133 148.073 26.04 148.1 26.28C148.127 26.4933 148.193 26.6933 148.3 26.88C148.593 26.8533 148.873 26.84 149.14 26.84C149.407 26.84 149.673 26.84 149.94 26.84C150.687 26.84 151.407 26.88 152.1 26.96C152.82 27.0133 153.5 27.12 154.14 27.28C155.26 26.48 156.247 25.32 157.1 23.8C157.26 23.4533 157.447 22.9733 157.66 22.36C157.9 21.7467 158.02 21.1867 158.02 20.68C158.02 20.3067 157.927 20 157.74 19.76C157.58 19.4933 157.273 19.36 156.82 19.36C156.153 19.36 155.54 19.6 154.98 20.08C154.42 20.56 153.94 21.12 153.54 21.76C153.167 22.4 152.873 22.96 152.66 23.44C152.473 23.92 152.393 24.16 152.42 24.16C152.393 24.16 152.367 24.1067 152.34 24C152.313 23.8933 152.3 23.7867 152.3 23.68C152.3 23.6 152.313 23.5467 152.34 23.52C152.393 23.36 152.513 23.04 152.7 22.56C152.913 22.08 153.207 21.5733 153.58 21.04C153.953 20.48 154.407 20.0133 154.94 19.64C155.5 19.24 156.14 19.04 156.86 19.04C157.553 19.04 158.02 19.2533 158.26 19.68C158.527 20.08 158.66 20.5467 158.66 21.08C158.66 21.56 158.58 22.0667 158.42 22.6C158.287 23.1067 158.127 23.5333 157.94 23.88C157.06 25.4533 155.993 26.6533 154.74 27.48C155.753 27.8267 156.567 28.3467 157.18 29.04C157.793 29.7333 158.047 30.6933 157.94 31.92C157.887 32.7733 157.62 33.5067 157.14 34.12C156.66 34.76 156.06 35.28 155.34 35.68C154.62 36.1067 153.86 36.4267 153.06 36.64C152.26 36.88 151.513 37.04 150.82 37.12C150.74 37.12 150.647 37.12 150.54 37.12C150.46 37.1467 150.353 37.16 150.22 37.16ZM158.34 12.24C159.007 12.24 159.54 12.16 159.94 12C160.527 11.76 160.82 11.3733 160.82 10.84C160.82 10.4667 160.633 10.1467 160.26 9.88C159.913 9.61333 159.5 9.44 159.02 9.36C158.54 9.28 158.113 9.24 157.74 9.24C156.753 9.24 155.78 9.4 154.82 9.72C153.86 10.0133 152.9 10.4267 151.94 10.96C153.113 11.3067 154.26 11.6133 155.38 11.88C156.527 12.12 157.513 12.24 158.34 12.24ZM149.7 20.36C150.233 20.1733 150.82 19.92 151.46 19.6C152.1 19.2533 152.647 18.92 153.1 18.6C153.393 18.3867 153.66 18.1333 153.9 17.84C154.14 17.52 154.26 17.2533 154.26 17.04C154.26 16.8 154.1 16.68 153.78 16.68C153.433 16.68 152.927 16.92 152.26 17.4C151.62 17.8533 150.993 18.5067 150.38 19.36L149.7 20.36ZM151.14 28.36C151.753 28.36 152.433 28.1867 153.18 27.84C152.487 27.6267 151.727 27.4667 150.9 27.36C150.1 27.2533 149.3 27.2 148.5 27.2C148.713 27.5467 149.033 27.8267 149.46 28.04C149.913 28.2533 150.473 28.36 151.14 28.36Z" fill="white"/>
</svg>
