<svg width="562" height="80" viewBox="0 0 562 80" fill="none" xmlns="http://www.w3.org/2000/svg">
<path d="M19.36 65.64C7.76 65.64 2.08 51.8 2.08 37.4C2.08 23.32 9.28 9.96 20 9.96C26 9.96 27.28 12.84 29.12 12.84C29.92 12.84 30.24 12.6 30.48 12.36H31.04V22.36H29.84C29.44 15.72 26.08 11.8 20.08 11.8C11.2 11.8 7.44 24.52 7.44 37.4C7.44 50.52 10.08 63.72 19.36 63.72C25.12 63.72 28.88 58.36 30.08 49.96H32C30.88 58.92 26.72 65.64 19.36 65.64ZM52.6431 65.64C40.8831 65.64 35.2831 50.28 35.2831 37.32C35.2831 22.52 42.1631 9.96 52.6431 9.96C63.1231 9.96 70.0031 22.52 70.0031 37.32C70.0031 50.28 64.4031 65.64 52.6431 65.64ZM52.6431 63.8C62.2431 63.8 64.6431 49.72 64.6431 37.32C64.6431 23.64 61.2831 11.8 52.6431 11.8C44.0031 11.8 40.6431 23.64 40.6431 37.32C40.6431 49.72 43.0431 63.8 52.6431 63.8ZM78.9094 65H74.1094V64.6C74.6694 63.56 75.3894 60.6 75.3894 58.68V16.92C75.3894 15 74.6694 12.04 74.1094 11V10.6H80.4294L93.6294 54.12L106.829 10.6H113.069V11C112.509 12.04 111.789 15 111.789 16.92V58.68C111.789 60.6 112.509 63.56 113.069 64.6V65H105.709V64.6C106.269 63.56 106.989 60.6 106.989 58.68V17.16L92.4294 65H91.9494L77.3894 16.68V58.68C77.3894 60.6 78.3494 63.56 78.9094 64.6V65ZM124.438 65H117.078V64.6C117.638 63.56 118.358 60.6 118.358 58.68V16.92C118.358 15 117.638 12.04 117.078 11V10.6C118.438 10.68 121.078 10.76 122.758 10.76C124.438 10.76 127.878 10.6 131.478 10.6C140.278 10.6 146.598 15.48 146.598 23.32C146.598 31.48 140.198 37.16 128.038 37.16H123.158V58.76C123.158 60.68 123.878 63.56 124.438 64.6V65ZM123.158 12.36V35.48H128.038C137.398 35.48 141.238 30.44 141.238 23.32C141.238 16.04 136.918 12.36 128.838 12.36H123.158ZM160.189 10.6H163.949L182.829 64.6V65H175.549V64.6C175.949 63 175.549 59 174.429 55.8L169.709 42.2H152.029L148.189 54.12C146.589 59.08 146.749 62.36 147.469 64.6V65H142.589L142.509 64.6L160.189 10.6ZM160.509 15.72L152.509 40.52H169.149L160.509 15.72ZM189.782 65H185.142V64.6C185.462 64.04 185.782 60.6 186.022 57.08C186.262 53.64 186.422 50.04 186.422 49.08V16.92C186.342 15.96 185.542 14.52 183.542 11V10.6H188.582L213.622 55.4V26.52C213.622 25.56 213.462 21.96 213.222 18.52C212.982 15 212.662 11.56 212.342 11V10.6H216.982V11C216.662 11.56 216.342 15 216.102 18.52C215.862 21.96 215.702 25.56 215.702 26.52V65H213.542L188.502 20.28V49.08C188.502 50.04 188.662 53.64 188.902 57.08C189.142 60.6 189.462 64.04 189.782 64.6V65ZM240.049 65H232.689V64.6C233.249 63.56 233.969 60.6 233.969 58.68V44.92L218.849 11V10.6H225.729V11C225.329 12.6 226.049 16.36 227.649 19.8L237.569 41.72L246.129 21.48C248.369 16.28 248.049 12.68 247.329 11V10.6H252.609L252.689 11L238.769 43.88V58.68C238.769 60.6 239.489 63.56 240.049 64.6V65ZM331.722 65H326.922V64.6C327.482 63.56 328.202 60.6 328.202 58.68V16.92C328.202 15 327.482 12.04 326.922 11V10.6H333.242L346.442 54.12L359.642 10.6H365.882V11C365.322 12.04 364.602 15 364.602 16.92V58.68C364.602 60.6 365.322 63.56 365.882 64.6V65H358.522V64.6C359.082 63.56 359.802 60.6 359.802 58.68V17.16L345.242 65H344.762L330.202 16.68V58.68C330.202 60.6 331.162 63.56 331.722 64.6V65ZM387.331 65.64C375.571 65.64 369.971 50.28 369.971 37.32C369.971 22.52 376.851 9.96 387.331 9.96C397.811 9.96 404.691 22.52 404.691 37.32C404.691 50.28 399.091 65.64 387.331 65.64ZM387.331 63.8C396.931 63.8 399.331 49.72 399.331 37.32C399.331 23.64 395.971 11.8 387.331 11.8C378.691 11.8 375.331 23.64 375.331 37.32C375.331 49.72 377.731 63.8 387.331 63.8ZM420.652 65.64C415.292 65.64 411.932 63.32 410.412 63.32C409.932 63.32 409.532 63.56 409.452 63.88H408.892V48.44H410.092C410.492 60.2 414.012 63.8 420.652 63.8C426.812 63.8 429.292 58.92 429.292 52.84C429.292 47.08 426.572 42.68 421.852 39.24L418.172 36.6C413.212 33.08 409.132 28.52 409.132 21.4C409.132 14.6 414.172 9.96 420.892 9.96C425.852 9.96 427.932 12.6 429.372 12.6C430.092 12.6 430.412 12.36 430.492 12.04H431.052V22.04H429.852C429.452 15.32 426.652 11.8 420.892 11.8C415.692 11.8 413.452 15.56 413.452 20.12C413.452 25.88 416.332 28.36 420.332 31.4L423.772 34.04C430.972 39.56 433.932 44.2 433.932 51.48C433.932 59.16 428.332 65.64 420.652 65.64ZM454.438 65.64C442.838 65.64 437.158 51.8 437.158 37.4C437.158 23.32 444.358 9.96 455.078 9.96C461.078 9.96 462.358 12.84 464.198 12.84C464.998 12.84 465.318 12.6 465.558 12.36H466.118V22.36H464.918C464.518 15.72 461.158 11.8 455.158 11.8C446.278 11.8 442.518 24.52 442.518 37.4C442.518 50.52 445.158 63.72 454.438 63.72C460.198 63.72 463.958 58.36 465.158 49.96H467.078C465.958 58.92 461.798 65.64 454.438 65.64ZM487.721 65.64C475.961 65.64 470.361 50.28 470.361 37.32C470.361 22.52 477.241 9.96 487.721 9.96C498.201 9.96 505.081 22.52 505.081 37.32C505.081 50.28 499.481 65.64 487.721 65.64ZM487.721 63.8C497.321 63.8 499.721 49.72 499.721 37.32C499.721 23.64 496.361 11.8 487.721 11.8C479.081 11.8 475.721 23.64 475.721 37.32C475.721 49.72 478.121 63.8 487.721 63.8ZM526.788 65H523.588L504.708 11V10.6H511.668V11C511.268 12.6 511.668 16.6 512.788 19.8L526.548 59.08L532.228 41.48L521.508 11V10.6H528.468V11C528.068 12.6 528.468 16.6 529.588 19.8L535.108 35.56L539.428 21.48C541.028 16.28 540.948 13.24 540.228 11V10.6H544.788L544.868 11L536.228 38.6L543.348 59L555.428 21.48C557.108 16.36 556.708 13.24 555.988 11V10.6H561.028L561.108 11L543.508 65H540.548L533.428 44.76L526.788 65Z" fill="black"/>
<path d="M299.44 73.32C298.32 73.32 297.093 73.2133 295.76 73C294.48 72.7867 293.36 72.52 292.4 72.2C291.493 71.88 291.066 71.56 291.12 71.24C291.12 71.1867 291.173 71.16 291.28 71.16C291.386 71.1067 291.626 71.1333 292 71.24C293.066 71.6667 294.133 71.9867 295.2 72.2C296.32 72.4667 297.52 72.6 298.8 72.6C299.066 72.6 299.36 72.6 299.68 72.6C300 72.6 300.32 72.5733 300.64 72.52C301.44 72.4133 302.48 72.2 303.76 71.88C305.093 71.56 306.4 71.0267 307.68 70.28C308.96 69.5333 310.026 68.52 310.88 67.24C311.786 66.0133 312.24 64.44 312.24 62.52C312.24 60.6 311.706 59.0533 310.64 57.88C309.573 56.7067 308.186 55.7733 306.48 55.08C305.52 55.4533 304.56 55.7733 303.6 56.04C302.64 56.2533 301.68 56.36 300.72 56.36C299.013 56.36 297.6 56.0933 296.48 55.56C295.36 55.0267 294.48 54.3333 293.84 53.48C293.413 53.48 292.986 53.5067 292.56 53.56C292.133 53.56 291.706 53.5867 291.28 53.64C288.346 53.96 285.68 54.44 283.28 55.08C280.88 55.72 278.56 56.4133 276.32 57.16C274.08 57.9067 271.706 58.6 269.2 59.24C266.693 59.88 263.84 60.36 260.64 60.68C260.373 60.7333 260.106 60.76 259.84 60.76C259.573 60.76 259.306 60.76 259.04 60.76C256.853 60.76 255.093 60.3067 253.76 59.4C252.48 58.5467 251.866 57.32 251.92 55.72C251.92 55.56 252 55.48 252.16 55.48C252.266 55.48 252.32 55.5333 252.32 55.64C252.533 57.1333 253.253 58.12 254.48 58.6C255.76 59.0267 257.146 59.24 258.64 59.24C259.226 59.24 259.786 59.2133 260.32 59.16C260.853 59.16 261.386 59.1333 261.92 59.08C265.653 58.4933 269.093 57.8 272.24 57C275.44 56.2 278.533 55.4533 281.52 54.76C284.506 54.0133 287.546 53.48 290.64 53.16L293.44 52.92C292.8 51.64 292.48 50.2267 292.48 48.68C292.48 47.8267 292.56 46.9733 292.72 46.12C292.826 45.4267 292.986 44.7333 293.2 44.04C292.453 44.9467 291.573 45.9067 290.56 46.92C289.546 47.9333 288.266 48.44 286.72 48.44C285.546 48.44 284.96 47.9067 284.96 46.84C284.96 46.5733 284.986 46.3333 285.04 46.12C285.146 45.8533 285.226 45.5867 285.28 45.32C285.813 43.7733 286.666 42.2 287.84 40.6C289.066 38.9467 290.32 37.4533 291.6 36.12C292.88 34.7333 293.893 33.6667 294.64 32.92C294.106 32.92 293.546 33.0533 292.96 33.32C292.426 33.5333 291.866 33.8533 291.28 34.28C289.893 35.24 288.48 36.3867 287.04 37.72C285.6 39.0533 284.266 40.4133 283.04 41.8C281.813 43.1867 280.773 44.4667 279.92 45.64C279.12 46.8133 278.613 47.72 278.4 48.36C277.866 48.36 277.6 48.0133 277.6 47.32C277.6 46.7867 277.76 46.12 278.08 45.32C278.4 44.52 278.8 43.6933 279.28 42.84C280.026 41.6133 280.906 40.2533 281.92 38.76C282.986 37.2667 284.106 35.8267 285.28 34.44C287.306 31.9867 289.626 29.56 292.24 27.16C294.906 24.7067 297.813 22.6 300.96 20.84C299.52 20.36 298.106 19.88 296.72 19.4C295.386 18.8667 294.186 18.3867 293.12 17.96C290.186 16.7333 286.986 15.7467 283.52 15C280.106 14.2 276.906 13.8 273.92 13.8C272.16 13.8 270.4 14.04 268.64 14.52C266.933 15 265.493 15.7467 264.32 16.76C263.146 17.7733 262.506 19.1067 262.4 20.76C263.146 20.7067 263.893 20.68 264.64 20.68C265.386 20.6267 266.106 20.6 266.8 20.6C268.186 20.6 269.733 20.68 271.44 20.84C273.2 21 275.066 21.2133 277.04 21.48C280.986 22.12 284.053 22.5733 286.24 22.84C288.48 23.1067 290.16 23.24 291.28 23.24C292.613 23.24 293.466 23.1067 293.84 22.84C294.266 22.5733 294.72 22.2267 295.2 21.8C295.306 22.3333 295.04 23 294.4 23.8C293.813 24.5467 292.88 24.9733 291.6 25.08C290.64 25.1333 289.786 25.1333 289.04 25.08C288.346 24.9733 287.413 24.8133 286.24 24.6C284.426 26.4667 282.64 28.76 280.88 31.48C279.173 34.1467 277.466 36.84 275.76 39.56C274.106 42.28 272.453 44.6267 270.8 46.6C268.986 48.84 266.746 50.7867 264.08 52.44C261.466 54.0933 258.773 54.92 256 54.92C254.56 54.92 253.333 54.7333 252.32 54.36C251.306 53.9333 250.453 53.4 249.76 52.76C249.066 52.0667 248.533 51.2933 248.16 50.44C247.84 49.5333 247.68 48.5733 247.68 47.56C247.68 46.1733 247.973 44.7867 248.56 43.4C249.146 41.96 250 40.6533 251.12 39.48C252.4 38.0933 254 36.7867 255.92 35.56C257.893 34.3333 260.08 33.3733 262.48 32.68C264.88 31.9867 267.36 31.7467 269.92 31.96C270.506 31.96 270.8 32.04 270.8 32.2C270.8 32.4133 270.506 32.4667 269.92 32.36C267.946 32.2 265.946 32.4933 263.92 33.24C261.893 33.9333 260 34.92 258.24 36.2C256.533 37.4267 255.093 38.76 253.92 40.2C253.013 41.3733 252.213 42.7333 251.52 44.28C250.88 45.7733 250.56 47.24 250.56 48.68C250.56 49.9067 250.88 50.9733 251.52 51.88C252 52.5733 252.586 53.08 253.28 53.4C253.973 53.72 254.72 53.88 255.52 53.88C256.693 53.88 257.893 53.64 259.12 53.16C260.346 52.6267 261.44 52.0133 262.4 51.32C263.466 50.4667 264.613 49.3733 265.84 48.04C267.066 46.7067 268.106 45.5067 268.96 44.44C270.08 43.0533 271.306 41.4533 272.64 39.64C273.973 37.8267 275.36 35.96 276.8 34.04C278.293 32.12 279.786 30.3333 281.28 28.68C282.773 26.9733 284.213 25.5867 285.6 24.52C283.946 24.2 282.266 23.8267 280.56 23.4C278.853 22.9733 277.12 22.6533 275.36 22.44C273.44 22.12 271.493 21.96 269.52 21.96C267.6 21.96 265.76 22.12 264 22.44C263.786 22.4933 263.546 22.5467 263.28 22.6C263.066 22.6 262.826 22.6533 262.56 22.76C263.093 24.84 264.453 26.52 266.64 27.8C268.88 29.0267 271.493 29.64 274.48 29.64C274.586 29.64 274.64 29.6667 274.64 29.72C274.64 29.88 274.426 29.96 274 29.96C272.08 29.96 270.16 29.7467 268.24 29.32C266.32 28.84 264.64 28.12 263.2 27.16C261.813 26.2 260.853 24.9733 260.32 23.48C258.773 24.0133 257.493 24.84 256.48 25.96C255.733 26.8667 255.36 27.7733 255.36 28.68C255.36 29.2133 255.493 29.6933 255.76 30.12C255.92 30.28 256.106 30.44 256.32 30.6C256.586 30.76 256.8 30.84 256.96 30.84C256.8 31 256.56 31.08 256.24 31.08C255.6 31.08 255.066 30.8667 254.64 30.44C254.16 30.0133 253.813 29.5333 253.6 29C253.386 28.4133 253.28 27.8533 253.28 27.32C253.28 25.4533 253.946 24.0667 255.28 23.16C256.613 22.2 258.186 21.5333 260 21.16C260 18.9733 260.72 17.24 262.16 15.96C263.653 14.68 265.466 13.7467 267.6 13.16C269.733 12.5733 271.786 12.28 273.76 12.28C276.906 12.28 280.213 12.84 283.68 13.96C287.2 15.08 290.4 16.2267 293.28 17.4C294.506 17.9333 295.84 18.4667 297.28 19C298.72 19.48 300.186 19.9867 301.68 20.52C303.866 19.3467 306.16 18.4133 308.56 17.72C310.96 17.0267 313.466 16.68 316.08 16.68C317.146 16.68 318.213 16.7867 319.28 17C320.4 17.16 321.306 17.4533 322 17.88C323.066 18.5733 323.6 19.4 323.6 20.36C323.6 21 323.36 21.6133 322.88 22.2C322.453 22.7867 321.866 23.24 321.12 23.56C320 24.04 318.586 24.28 316.88 24.28C314.8 24.28 312.453 23.9867 309.84 23.4C307.28 22.8133 304.746 22.12 302.24 21.32C298.666 23.4533 295.306 26.1733 292.16 29.48C289.013 32.7867 286.32 36.12 284.08 39.48L283.04 40.92C284.373 39.4267 285.813 37.9867 287.36 36.6C288.906 35.16 290.346 34.0133 291.68 33.16C292.106 32.8933 292.533 32.6533 292.96 32.44C293.386 32.2267 293.866 32.12 294.4 32.12C295.253 32.12 295.68 32.44 295.68 33.08C295.68 33.6133 295.36 34.2533 294.72 35C293.6 36.3333 292.453 37.7733 291.28 39.32C290.106 40.8667 289.12 42.4133 288.32 43.96C288.213 44.1733 288 44.6 287.68 45.24C287.36 45.88 287.2 46.4133 287.2 46.84C287.2 47.2667 287.413 47.48 287.84 47.48C288.48 47.48 289.2 47.1333 290 46.44C290.8 45.7467 291.546 45.0267 292.24 44.28C292.933 43.48 293.36 42.9733 293.52 42.76C293.573 42.76 293.6 42.7867 293.6 42.84C293.653 42.84 293.68 42.84 293.68 42.84C293.84 42.4133 294.026 41.9867 294.24 41.56C294.453 41.08 294.693 40.6267 294.96 40.2C295.866 38.7067 296.96 37.32 298.24 36.04C299.52 34.7067 300.906 33.64 302.4 32.84C303.893 31.9867 305.386 31.56 306.88 31.56C307.466 31.56 307.893 31.72 308.16 32.04C308.48 32.36 308.64 32.7067 308.64 33.08C308.64 33.5067 308.506 33.9333 308.24 34.36C307.973 34.7867 307.626 35.1867 307.2 35.56C306.08 36.6267 304.666 37.64 302.96 38.6C301.253 39.56 299.546 40.2533 297.84 40.68C296.986 42.12 296.32 43.64 295.84 45.24C295.36 46.84 295.12 48.4933 295.12 50.2C295.12 50.6267 295.146 51.08 295.2 51.56C295.253 51.9867 295.386 52.3867 295.6 52.76C296.186 52.7067 296.746 52.68 297.28 52.68C297.813 52.68 298.346 52.68 298.88 52.68C300.373 52.68 301.813 52.76 303.2 52.92C304.64 53.0267 306 53.24 307.28 53.56C309.52 51.96 311.493 49.64 313.2 46.6C313.52 45.9067 313.893 44.9467 314.32 43.72C314.8 42.4933 315.04 41.3733 315.04 40.36C315.04 39.6133 314.853 39 314.48 38.52C314.16 37.9867 313.546 37.72 312.64 37.72C311.306 37.72 310.08 38.2 308.96 39.16C307.84 40.12 306.88 41.24 306.08 42.52C305.333 43.8 304.746 44.92 304.32 45.88C303.946 46.84 303.786 47.32 303.84 47.32C303.786 47.32 303.733 47.2133 303.68 47C303.626 46.7867 303.6 46.5733 303.6 46.36C303.6 46.2 303.626 46.0933 303.68 46.04C303.786 45.72 304.026 45.08 304.4 44.12C304.826 43.16 305.413 42.1467 306.16 41.08C306.906 39.96 307.813 39.0267 308.88 38.28C310 37.48 311.28 37.08 312.72 37.08C314.106 37.08 315.04 37.5067 315.52 38.36C316.053 39.16 316.32 40.0933 316.32 41.16C316.32 42.12 316.16 43.1333 315.84 44.2C315.573 45.2133 315.253 46.0667 314.88 46.76C313.12 49.9067 310.986 52.3067 308.48 53.96C310.506 54.6533 312.133 55.6933 313.36 57.08C314.586 58.4667 315.093 60.3867 314.88 62.84C314.773 64.5467 314.24 66.0133 313.28 67.24C312.32 68.52 311.12 69.56 309.68 70.36C308.24 71.2133 306.72 71.8533 305.12 72.28C303.52 72.76 302.026 73.08 300.64 73.24C300.48 73.24 300.293 73.24 300.08 73.24C299.92 73.2933 299.706 73.32 299.44 73.32ZM315.68 23.48C317.013 23.48 318.08 23.32 318.88 23C320.053 22.52 320.64 21.7467 320.64 20.68C320.64 19.9333 320.266 19.2933 319.52 18.76C318.826 18.2267 318 17.88 317.04 17.72C316.08 17.56 315.226 17.48 314.48 17.48C312.506 17.48 310.56 17.8 308.64 18.44C306.72 19.0267 304.8 19.8533 302.88 20.92C305.226 21.6133 307.52 22.2267 309.76 22.76C312.053 23.24 314.026 23.48 315.68 23.48ZM298.4 39.72C299.466 39.3467 300.64 38.84 301.92 38.2C303.2 37.5067 304.293 36.84 305.2 36.2C305.786 35.7733 306.32 35.2667 306.8 34.68C307.28 34.04 307.52 33.5067 307.52 33.08C307.52 32.6 307.2 32.36 306.56 32.36C305.866 32.36 304.853 32.84 303.52 33.8C302.24 34.7067 300.986 36.0133 299.76 37.72L298.4 39.72ZM301.28 55.72C302.506 55.72 303.866 55.3733 305.36 54.68C303.973 54.2533 302.453 53.9333 300.8 53.72C299.2 53.5067 297.6 53.4 296 53.4C296.426 54.0933 297.066 54.6533 297.92 55.08C298.826 55.5067 299.946 55.72 301.28 55.72Z" fill="black"/>
</svg>
